# xmcd CD database file
#
# Track frame offsets:
#	150
#	23955
#	38752
#	50725
#	70875
#	85110
#	104290
#	126100
#	147975
#	163447
#	180435
#	201677
#	218575
#	236235
#	258030
#
# Disc length: 3656 seconds
#
# Revision: 0
# Processed by: cddbd v1.4PL0 Copyright (c) Steve Scherf et al.
# Submitted via: CDex 1.50
#
DISCID=dd0e460f
DTITLE=The Original Salty Dogs - New Orleans Shuffle
DYEAR=2001
DGENRE=Jazz
TTITLE0=Wolverine Blues
TTITLE1=Mississippi Rag
TTITLE2=Oh, Baby!
TTITLE3=Daddy Doo
TTITLE4=Irish Black Bottom
TTITLE5=Gee Baby Ain't I Good To You
TTITLE6=Louisiana
TTITLE7=New Orleans Shuffle
TTITLE8=Sorry
TTITLE9=Davenport Blues
TTITLE10=Nobody's Blues But Mine
TTITLE11=Ostrich Walk
TTITLE12=Oh Mama
TTITLE13=Just A Little While To Stay Here
TTITLE14=Sensation
EXTD=YEAR: 2001
EXTT0=
EXTT1=
EXTT2=
EXTT3=
EXTT4=
EXTT5=
EXTT6=
EXTT7=
EXTT8=
EXTT9=
EXTT10=
EXTT11=
EXTT12=
EXTT13=
EXTT14=
PLAYORDER=
